<svg width="12" height="12" viewBox="0 0 12 12" fill="#2F2F2F" xmlns="http://www.w3.org/2000/svg">
<path fill-rule="evenodd" clip-rule="evenodd" d="M11.7359 0.263992C11.3839 -0.0879975 10.8133 -0.0879973 10.4613 0.263992L5.99995 4.72533L1.53865 0.264002C1.18666 -0.0879876 0.615978 -0.0879877 0.263991 0.264002C-0.0879969 0.615991 -0.0879969 1.18668 0.263991 1.53867L4.72529 6L0.263991 10.4613C-0.0879967 10.8133 -0.0879967 11.384 0.263991 11.736C0.615978 12.088 1.18666 12.088 1.53865 11.736L5.99995 7.27467L10.4613 11.736C10.8133 12.088 11.3839 12.088 11.7359 11.736C12.0879 11.384 12.0879 10.8133 11.7359 10.4613L7.27461 6L11.7359 1.53866C12.0879 1.18667 12.0879 0.615982 11.7359 0.263992Z" fill="#2F2F2F"/>
</svg>
